<svg width="72" height="57" viewBox="0 0 72 57" fill="none" xmlns="http://www.w3.org/2000/svg">
<g id="bootstrap-logo.svg" clip-path="url(#clip0_90_1042)">
<path id="Vector" d="M8.12608 7.44912C7.99112 3.57368 11.0106 0 15.092 0H56.9133C60.9947 0 64.0142 3.57368 63.8792 7.44912C63.7496 11.1719 63.9179 15.9942 65.1315 19.9263C66.3491 23.8704 68.4022 26.3635 71.7648 26.6838V30.3162C68.4022 30.6365 66.3491 33.1296 65.1315 37.0737C63.9179 41.0058 63.7496 45.8281 63.8792 49.551C64.0142 53.4263 60.9947 57 56.9133 57H15.092C11.0106 57 7.99112 53.4263 8.12622 49.551C8.25573 45.8281 8.08738 41.0058 6.87362 37.0737C5.65622 33.1296 3.59807 30.6365 0.235352 30.3162V26.6838C3.59793 26.3635 5.65622 23.8704 6.87362 19.9263C8.08738 15.9942 8.25573 11.1719 8.12608 7.44912Z" fill="url(#paint0_linear_90_1042)"/>
<g id="Vector_2" filter="url(#filter0_d_90_1042)">
<path d="M37.5514 43.6521C44.1591 43.6521 48.1408 40.4168 48.1408 35.0804C48.1408 31.0467 45.2998 28.1264 41.0812 27.6641V27.4961C44.1806 26.9919 46.6127 24.1137 46.6127 20.8993C46.6127 16.3193 42.9969 13.3359 37.4869 13.3359H25.0894V43.6521H37.5514ZM29.9106 17.1806H36.3246C39.8114 17.1806 41.7915 18.7353 41.7915 21.5505C41.7915 24.5548 39.4886 26.2355 35.313 26.2355H29.9106V17.1806ZM29.9106 39.8075V29.8282H36.2815C40.8444 29.8282 43.212 31.5088 43.212 34.7863C43.212 38.0637 40.9091 39.8075 36.5613 39.8075H29.9106Z" fill="url(#paint1_linear_90_1042)"/>
<path d="M37.5514 43.6521C44.1591 43.6521 48.1408 40.4168 48.1408 35.0804C48.1408 31.0467 45.2998 28.1264 41.0812 27.6641V27.4961C44.1806 26.9919 46.6127 24.1137 46.6127 20.8993C46.6127 16.3193 42.9969 13.3359 37.4869 13.3359H25.0894V43.6521H37.5514ZM29.9106 17.1806H36.3246C39.8114 17.1806 41.7915 18.7353 41.7915 21.5505C41.7915 24.5548 39.4886 26.2355 35.313 26.2355H29.9106V17.1806ZM29.9106 39.8075V29.8282H36.2815C40.8444 29.8282 43.212 31.5088 43.212 34.7863C43.212 38.0637 40.9091 39.8075 36.5613 39.8075H29.9106Z" stroke="white" stroke-width="0.139706"/>
</g>
</g>
<defs>
<filter id="filter0_d_90_1042" x="22.7842" y="11.5896" width="27.6615" height="34.9265" filterUnits="userSpaceOnUse" color-interpolation-filters="sRGB">
<feFlood flood-opacity="0" result="BackgroundImageFix"/>
<feColorMatrix in="SourceAlpha" type="matrix" values="0 0 0 0 0 0 0 0 0 0 0 0 0 0 0 0 0 0 127 0" result="hardAlpha"/>
<feOffset dy="0.558824"/>
<feGaussianBlur stdDeviation="1.11765"/>
<feColorMatrix type="matrix" values="0 0 0 0 0 0 0 0 0 0 0 0 0 0 0 0 0 0 0.15 0"/>
<feBlend mode="normal" in2="BackgroundImageFix" result="effect1_dropShadow_90_1042"/>
<feBlend mode="normal" in="SourceGraphic" in2="effect1_dropShadow_90_1042" result="shape"/>
</filter>
<linearGradient id="paint0_linear_90_1042" x1="10.864" y1="1.50855" x2="73.3686" y2="51.1247" gradientUnits="userSpaceOnUse">
<stop stop-color="#9013FE"/>
<stop offset="1" stop-color="#6610F2"/>
</linearGradient>
<linearGradient id="paint1_linear_90_1042" x1="27.2697" y1="15.3313" x2="41.2412" y2="38.9601" gradientUnits="userSpaceOnUse">
<stop stop-color="white"/>
<stop offset="1" stop-color="#F1E5FC"/>
</linearGradient>
<clipPath id="clip0_90_1042">
<rect width="71.5294" height="57" fill="white" transform="translate(0.235352)"/>
</clipPath>
</defs>
</svg>
